<svg id="Layer_1" data-name="Layer 1" xmlns="http://www.w3.org/2000/svg" viewBox="0 0 255.68 297.21"><title>EP_Botanical_Leaf_26_Black</title><path d="M153.13,96.64c0-7.83-.11-12.15,0-16.46a39.5,39.5,0,0,1,3.53-14.59A64,64,0,0,1,169.92,46c4-4.09,8.35-7.94,12.73-11.66,4.95-4.19,10.23-8,15.17-12.17,11.78-10,25.68-15.69,40.32-19.85,3.45-1,7-1.56,10.55-2.29,2.47-.51,6,2.14,6.38,4.54a36.12,36.12,0,0,1-.37,15A203.44,203.44,0,0,1,238.37,64.1,87.25,87.25,0,0,1,219.9,87.87c-11.27,10.4-24.12,18.12-39.26,21.6-2.8.64-5.48,2.06-8.3,2.34-8.1.8-12.85,5.86-16.63,12.29-4.37,7.45-8.89,14.82-12.91,22.46-11.08,21-21.52,42.33-31,64.11a163.57,163.57,0,0,0-7.49,22.47c-4.45,16.18-4.67,32.7-5.11,49.25-.12,4.26.81,8.59-.9,12.77-.65,1.6-1.6,2.39-3.34,1.92A3.64,3.64,0,0,1,93.4,296a4.88,4.88,0,0,1-1.2-1.77,17.07,17.07,0,0,1-1-4.18c-.23-4.31-.76-8.68-.3-12.93,1.6-15,1.58-30.22,5.29-45a13.62,13.62,0,0,0-.92-8.45,107.33,107.33,0,0,0-9.22-17.08c-5-7.89-10.21-15.69-14.93-23.76-3.47-5.93-7.64-10.23-14.92-11-3.53-.36-6.94-1.87-10.46-2.61-5.81-1.23-10.68-4.17-15.15-7.89-2.21-1.85-4.32-3.81-6.53-5.66C18.46,151,14.29,145.24,10.53,139,3.63,127.61.77,115.1.16,102A165.58,165.58,0,0,1,.45,82.58C1.05,74,2.16,65.39,3.07,56.8c.32-2.94,1.72-5.47,3.17-8,1-1.68,4.13-3.12,5.5-2.58,18.38,7.22,34.09,18.51,48.33,32,9.19,8.66,14.3,19.71,17.53,31.71a32.79,32.79,0,0,1,.81,6.42,128.76,128.76,0,0,1-2,32.26c-1,4.94-1.85,9.91-2.52,14.9a13.91,13.91,0,0,0,1.4,8.4,137.62,137.62,0,0,0,7.36,13.17c4.4,6.57,9.22,12.86,13.9,19.25,1.59,2.17,6.23,2,7.56-.28.36-.62.85-1.16,1.19-1.79,4.05-7.62,8.47-15.08,12.06-22.92,9.61-21,20.76-41.09,31.94-61.22.7-1.26,1.36-2.54,2.08-3.79a16,16,0,0,0,2.12-8.26C153.5,101.76,153.16,97.45,153.13,96.64Z"/></svg>